<?xml version="1.0" encoding="UTF-8"?>
<!DOCTYPE svg PUBLIC "-//W3C//DTD SVG 1.1//EN" "http://www.w3.org/Graphics/SVG/1.1/DTD/svg11.dtd">
<svg xmlns="http://www.w3.org/2000/svg" version="1.1" width="863px" height="289px" style="shape-rendering:geometricPrecision; text-rendering:geometricPrecision; image-rendering:optimizeQuality; fill-rule:evenodd; clip-rule:evenodd" xmlns:xlink="http://www.w3.org/1999/xlink">
<g><path style="opacity:0.969" fill="#73c6ca" d="M 37.5,45.5 C 38.1667,45.5 38.5,45.8333 38.5,46.5C 38.6667,104.834 38.5,163.168 38,221.5C 37.3512,224.647 35.5179,226.647 32.5,227.5C 32.8333,226.167 33.1667,224.833 33.5,223.5C 36.2763,223.911 36.943,223.078 35.5,221C 36.1609,162.36 36.8276,103.86 37.5,45.5 Z"/></g>
<g><path style="opacity:1" fill="#17b4ba" d="M 28.5,33.5 C 29.1499,33.8039 29.8165,34.1373 30.5,34.5C 31.1667,36.5 31.8333,38.5 32.5,40.5C 34.4086,39.6518 36.4086,39.3184 38.5,39.5C 38.6747,41.6208 38.3414,43.6208 37.5,45.5C 36.8276,103.86 36.1609,162.36 35.5,221C 36.943,223.078 36.2763,223.911 33.5,223.5C 33.9958,164.691 33.4958,106.024 32,47.5C 30.8782,50.3089 30.3782,53.3089 30.5,56.5C 31.6324,111.16 31.7991,165.827 31,220.5C 30.6667,221.167 30.3333,221.833 30,222.5C 29.7104,220.956 29.0437,219.623 28,218.5C 27.8333,192.667 27.6667,166.833 27.5,141C 27.5261,114.105 28.1927,87.2713 29.5,60.5C 28.9324,58.6305 28.2657,56.7972 27.5,55C 30.5653,48.0979 30.8986,40.9312 28.5,33.5 Z"/></g>
<g><path style="opacity:1" fill="#595d63" d="M 678.5,61.5 C 678.167,82.1774 678.5,102.844 679.5,123.5C 680.107,123.376 680.44,123.043 680.5,122.5C 687.899,115.617 695.565,108.95 703.5,102.5C 716.344,102.171 729.011,102.505 741.5,103.5C 739.781,106.219 737.447,108.219 734.5,109.5C 732.876,109.36 731.71,110.027 731,111.5C 728.871,110.137 728.371,110.471 729.5,112.5C 729.154,113.696 728.654,113.696 728,112.5C 727.517,113.448 727.351,114.448 727.5,115.5C 726.055,117.063 724.389,118.396 722.5,119.5C 721.265,119.279 720.265,118.612 719.5,117.5C 718.307,120.938 715.974,123.271 712.5,124.5C 711.289,123.726 711.289,122.893 712.5,122C 711.552,121.517 710.552,121.351 709.5,121.5C 709.244,123.792 709.577,125.959 710.5,128C 709.062,128.219 707.729,128.719 706.5,129.5C 707.127,130.417 707.461,131.417 707.5,132.5C 705.317,133.85 703.65,135.684 702.5,138C 704.601,141.934 707.268,145.434 710.5,148.5C 710.427,150.027 711.094,151.027 712.5,151.5C 723.173,163.653 733.506,176.153 743.5,189C 732.167,189.667 720.833,189.667 709.5,189C 702.333,179.67 695,170.503 687.5,161.5C 687.715,159.821 687.048,158.821 685.5,158.5C 684.199,157.36 683.032,156.027 682,154.5C 681.333,155.167 680.667,155.833 680,156.5C 679.5,167.495 679.333,178.495 679.5,189.5C 670.5,189.5 661.5,189.5 652.5,189.5C 652.5,146.833 652.5,104.167 652.5,61.5C 661.167,61.5 669.833,61.5 678.5,61.5 Z"/></g>
<g><path style="opacity:0.922" fill="#4cb7ba" d="M 22.5,45.5 C 22.1667,104.504 22.5,163.504 23.5,222.5C 25.6114,223.605 26.9447,225.271 27.5,227.5C 24.8517,227.262 23.0183,225.928 22,223.5C 21.1681,163.999 21.3347,104.665 22.5,45.5 Z"/></g>
<g><path style="opacity:0.999" fill="#53585d" d="M 329.5,102.5 C 336.167,102.5 342.833,102.5 349.5,102.5C 349.5,109.5 349.5,116.5 349.5,123.5C 342.833,123.5 336.167,123.5 329.5,123.5C 329.056,136.907 329.556,150.24 331,163.5C 332.529,166.934 335.196,168.6 339,168.5C 342.444,168.185 345.61,167.185 348.5,165.5C 349.491,172.313 349.825,179.313 349.5,186.5C 347.035,188.837 344.035,190.337 340.5,191C 335.98,191.814 331.646,191.647 327.5,190.5C 324.267,189.877 321.601,188.21 319.5,185.5C 318.818,186.243 318.151,186.909 317.5,187.5C 317.027,186.094 316.027,185.427 314.5,185.5C 313.73,183.065 312.063,181.731 309.5,181.5C 305.862,176.089 303.695,170.089 303,163.5C 302.5,150.171 302.333,136.837 302.5,123.5C 299.5,123.5 296.5,123.5 293.5,123.5C 292.868,116.641 292.868,109.641 293.5,102.5C 296.833,102.5 300.167,102.5 303.5,102.5C 303.5,94.1667 303.5,85.8333 303.5,77.5C 311.833,77.5 320.167,77.5 328.5,77.5C 328.174,86.0168 328.507,94.3501 329.5,102.5 Z"/></g>
<g><path style="opacity:0.395" fill="#bcbec1" d="M 329.5,101.5 C 329.5,101.833 329.5,102.167 329.5,102.5C 328.507,94.3501 328.174,86.0168 328.5,77.5C 320.167,77.5 311.833,77.5 303.5,77.5C 303.5,85.8333 303.5,94.1667 303.5,102.5C 300.167,102.5 296.833,102.5 293.5,102.5C 296.287,101.523 299.287,101.19 302.5,101.5C 302.5,93.1667 302.5,84.8333 302.5,76.5C 311.5,76.5 320.5,76.5 329.5,76.5C 329.5,84.8333 329.5,93.1667 329.5,101.5 Z"/></g>
<g><path style="opacity:1" fill="#2eb7bd" d="M 231.5,126.5 C 230.609,127.261 229.942,128.261 229.5,129.5C 231.778,134.016 232.111,138.683 230.5,143.5C 231.5,143.5 232.5,143.5 233.5,143.5C 232.934,149.048 232.934,154.548 233.5,160C 232.082,162.34 230.415,164.507 228.5,166.5C 222.855,166.991 217.188,168.325 211.5,170.5C 209.358,169.399 207.192,168.399 205,167.5C 203,168.167 201.667,169.5 201,171.5C 199.301,170.594 197.467,170.261 195.5,170.5C 203.987,164.993 212.487,159.326 221,153.5C 224.592,147.359 223.758,141.859 218.5,137C 165.301,104.905 112.301,72.5713 59.5,40C 55.6251,38.4796 51.6251,38.1462 47.5,39C 43.6997,40.6416 40.6997,43.1416 38.5,46.5C 38.5,45.8333 38.1667,45.5 37.5,45.5C 38.3414,43.6208 38.6747,41.6208 38.5,39.5C 36.4086,39.3184 34.4086,39.6518 32.5,40.5C 31.8333,38.5 31.1667,36.5 30.5,34.5C 29.8165,34.1373 29.1499,33.8039 28.5,33.5C 28.8588,31.629 29.8588,30.129 31.5,29C 41.5922,21.3818 52.5922,19.7152 64.5,24C 119.389,56.5391 174.055,89.5391 228.5,123C 229.71,124.039 230.71,125.206 231.5,126.5 Z"/></g>
<g><path style="opacity:0.235" fill="#d5d6d9" d="M 382.5,102.5 C 373.318,102.173 364.318,102.507 355.5,103.5C 354.957,103.44 354.624,103.107 354.5,102.5C 363.992,101.178 373.325,101.178 382.5,102.5 Z"/></g>
<g><path style="opacity:1" fill="#575c62" d="M 646.5,102.5 C 647.299,105.43 647.632,108.43 647.5,111.5C 647.675,113.621 647.341,115.621 646.5,117.5C 644.534,118.255 644.2,119.421 645.5,121C 643.866,121.494 642.199,121.66 640.5,121.5C 634.928,120.99 629.595,121.823 624.5,124C 622.383,125.731 620.883,127.898 620,130.5C 618.562,150.12 618.062,169.787 618.5,189.5C 609.833,189.5 601.167,189.5 592.5,189.5C 592.5,160.5 592.5,131.5 592.5,102.5C 600.833,102.5 609.167,102.5 617.5,102.5C 617.192,104.924 617.526,107.257 618.5,109.5C 619.298,109.043 619.631,108.376 619.5,107.5C 626.256,101.308 634.256,99.1413 643.5,101C 644.737,101.232 645.737,101.732 646.5,102.5 Z"/></g>
<g><path style="opacity:0.231" fill="#d4d7da" d="M 703.5,102.5 C 716.673,101.175 730.006,101.175 743.5,102.5C 743.043,103.298 742.376,103.631 741.5,103.5C 729.011,102.505 716.344,102.171 703.5,102.5 Z"/></g>
<g><path style="opacity:0.236" fill="#d5d9dc" d="M 773.5,102.5 C 764.318,102.173 755.318,102.507 746.5,103.5C 745.957,103.44 745.624,103.107 745.5,102.5C 754.992,101.178 764.325,101.178 773.5,102.5 Z"/></g>
<g><path style="opacity:0.231" fill="#d2d5d9" d="M 836.5,102.5 C 827.083,102.195 817.75,102.528 808.5,103.5C 812.783,102.173 817.449,101.507 822.5,101.5C 827.346,101.501 832.012,101.834 836.5,102.5 Z"/></g>
<g><path style="opacity:0.35" fill="#c5c7cb" d="M 329.5,102.5 C 329.5,102.167 329.5,101.833 329.5,101.5C 336.5,101.5 343.5,101.5 350.5,101.5C 350.825,109.019 350.492,116.352 349.5,123.5C 349.5,116.5 349.5,109.5 349.5,102.5C 342.833,102.5 336.167,102.5 329.5,102.5 Z"/></g>
<g><path style="opacity:1" fill="#565b61" d="M 445.5,146.5 C 446.032,149.46 446.699,149.793 447.5,147.5C 450.463,136.287 453.796,125.287 457.5,114.5C 459.124,114.64 460.29,113.973 461,112.5C 460.652,109.064 460.819,105.731 461.5,102.5C 470.657,101.342 479.991,101.176 489.5,102C 488.771,104.058 487.771,105.891 486.5,107.5C 485.603,108.598 484.77,108.598 484,107.5C 483.167,109 482,110.167 480.5,111C 481.672,111.419 482.672,112.085 483.5,113C 481.679,115.456 481.012,118.289 481.5,121.5C 480.204,125.739 478.538,129.739 476.5,133.5C 475.175,134.953 474.342,134.619 474,132.5C 472.886,135.291 472.72,138.291 473.5,141.5C 467.833,157.5 462.167,173.5 456.5,189.5C 450.132,189.83 443.798,189.496 437.5,188.5C 432.434,175.471 427.268,162.471 422,149.5C 420.391,153.71 418.558,157.71 416.5,161.5C 414.744,162.552 414.077,164.219 414.5,166.5C 412.44,174.01 409.773,181.344 406.5,188.5C 400.202,189.496 393.868,189.83 387.5,189.5C 386.793,185.752 385.793,182.086 384.5,178.5C 384.664,175.813 384.497,173.146 384,170.5C 383.329,171.252 382.496,171.586 381.5,171.5C 376.259,159.116 371.592,146.45 367.5,133.5C 367.771,131.179 367.104,129.179 365.5,127.5C 366.444,125.863 365.777,124.863 363.5,124.5C 360.558,117.615 357.892,110.615 355.5,103.5C 364.318,102.507 373.318,102.173 382.5,102.5C 387.356,117.068 392.022,131.735 396.5,146.5C 397.301,148.793 397.968,148.46 398.5,145.5C 398.5,145.167 398.5,144.833 398.5,144.5C 400.268,143.238 401.935,142.238 403.5,141.5C 403.154,140.304 402.654,140.304 402,141.5C 401.516,139.087 401.85,136.754 403,134.5C 403.556,136.595 404.056,136.762 404.5,135C 403.873,132.589 403.873,130.089 404.5,127.5C 406.159,118.702 408.826,110.202 412.5,102C 418.833,101.333 425.167,101.333 431.5,102C 437.072,116.549 441.739,131.383 445.5,146.5 Z"/></g>
<g><path style="opacity:1" fill="#565a60" d="M 564.5,109.5 C 565.011,111.195 565.678,112.861 566.5,114.5C 567.425,115.641 568.259,115.641 569,114.5C 570.039,115.71 571.206,116.71 572.5,117.5C 572.962,119.757 573.962,121.757 575.5,123.5C 574.754,124.736 574.421,126.07 574.5,127.5C 575.5,127.5 576.5,127.5 577.5,127.5C 577.077,129.781 577.744,131.448 579.5,132.5C 580.451,133.919 580.784,135.585 580.5,137.5C 580.5,142.167 580.5,146.833 580.5,151.5C 559.833,151.5 539.167,151.5 518.5,151.5C 518.263,152.791 518.596,153.791 519.5,154.5C 520.441,156.05 521.107,157.716 521.5,159.5C 521.427,161.027 522.094,162.027 523.5,162.5C 532.211,169.171 541.545,170.171 551.5,165.5C 554.81,166.446 558.144,166.613 561.5,166C 562.973,166.71 563.64,167.876 563.5,169.5C 570.634,169.385 572.968,173.052 570.5,180.5C 567.393,181.126 565.06,182.792 563.5,185.5C 555.835,189.731 547.502,191.731 538.5,191.5C 529.79,191.836 521.79,189.836 514.5,185.5C 514.027,184.094 513.027,183.427 511.5,183.5C 507.98,182.647 505.313,180.647 503.5,177.5C 503.269,174.937 501.935,173.27 499.5,172.5C 490.089,156.998 489.089,140.998 496.5,124.5C 497.906,124.027 498.573,123.027 498.5,121.5C 498.273,119.067 499.273,117.401 501.5,116.5C 502.833,115.833 503.833,114.833 504.5,113.5C 506.239,110.757 508.573,108.757 511.5,107.5C 513.967,107.245 515.967,106.245 517.5,104.5C 520.152,104.59 522.485,103.924 524.5,102.5C 536.767,99.2609 548.767,100.428 560.5,106C 562.093,106.949 563.426,108.115 564.5,109.5 Z M 552.5,131.5 C 552.5,132.5 552.5,133.5 552.5,134.5C 541.654,134.828 530.987,134.494 520.5,133.5C 523.273,126.112 528.606,122.778 536.5,123.5C 543.829,122.587 549.162,125.253 552.5,131.5 Z"/></g>
<g><path style="opacity:1" fill="#5b6066" d="M 773.5,102.5 C 779.6,116.37 785.433,130.37 791,144.5C 795.668,132.508 800.834,120.841 806.5,109.5C 808.074,107.898 808.741,105.898 808.5,103.5C 817.75,102.528 827.083,102.195 836.5,102.5C 822.978,137.424 808.311,171.758 792.5,205.5C 790.4,207.498 788.4,209.665 786.5,212C 787.863,214.129 787.529,214.629 785.5,213.5C 784.289,214.274 784.289,215.107 785.5,216C 783.905,215.383 782.572,215.716 781.5,217C 782.167,217.667 782.833,218.333 783.5,219C 780.971,221.029 778.304,222.862 775.5,224.5C 776.127,225.417 776.461,226.417 776.5,227.5C 770.851,231.662 764.518,233.162 757.5,232C 752.055,230.112 747.055,227.445 742.5,224C 741.248,222.172 741.248,220.339 742.5,218.5C 745.431,215.987 746.765,212.653 746.5,208.5C 746.377,205.412 747.377,202.745 749.5,200.5C 753.569,204.043 758.235,205.543 763.5,205C 766.023,203.64 768.023,201.807 769.5,199.5C 770.906,199.027 771.573,198.027 771.5,196.5C 773.092,190.057 775.092,183.724 777.5,177.5C 767.091,152.793 756.758,128.126 746.5,103.5C 755.318,102.507 764.318,102.173 773.5,102.5 Z"/></g>
<g><path style="opacity:0.898" fill="#929699" d="M 524.5,102.5 C 522.485,103.924 520.152,104.59 517.5,104.5C 519.515,103.076 521.848,102.41 524.5,102.5 Z"/></g>
<g><path style="opacity:0.596" fill="#969a9d" d="M 617.5,102.5 C 617.833,102.5 618.167,102.5 618.5,102.5C 618.216,104.415 618.549,106.081 619.5,107.5C 619.631,108.376 619.298,109.043 618.5,109.5C 617.526,107.257 617.192,104.924 617.5,102.5 Z"/></g>
<g><path style="opacity:0.976" fill="#919195" d="M 646.5,102.5 C 648.252,102.418 649.252,103.251 649.5,105C 649.01,107.346 648.343,109.513 647.5,111.5C 647.632,108.43 647.299,105.43 646.5,102.5 Z"/></g>
<g><path style="opacity:0.475" fill="#b1b4b9" d="M 618.5,102.5 C 618.167,102.5 617.833,102.5 617.5,102.5C 609.167,102.5 600.833,102.5 592.5,102.5C 592.5,131.5 592.5,160.5 592.5,189.5C 591.502,160.338 591.169,131.005 591.5,101.5C 600.682,101.173 609.682,101.507 618.5,102.5 Z"/></g>
<g><path style="opacity:0.753" fill="#a4a7aa" d="M 517.5,104.5 C 515.967,106.245 513.967,107.245 511.5,107.5C 513.033,105.755 515.033,104.755 517.5,104.5 Z"/></g>
<g><path style="opacity:0.973" fill="#949699" d="M 808.5,103.5 C 808.741,105.898 808.074,107.898 806.5,109.5C 806.259,107.102 806.926,105.102 808.5,103.5 Z"/></g>
<g><path style="opacity:0.999" fill="#717579" d="M 461.5,102.5 C 460.819,105.731 460.652,109.064 461,112.5C 460.29,113.973 459.124,114.64 457.5,114.5C 458.261,110.216 459.595,106.216 461.5,102.5 Z"/></g>
<g><path style="opacity:0.983" fill="#767b7f" d="M 486.5,107.5 C 484.807,112.252 483.14,116.919 481.5,121.5C 481.012,118.289 481.679,115.456 483.5,113C 482.672,112.085 481.672,111.419 480.5,111C 482,110.167 483.167,109 484,107.5C 484.77,108.598 485.603,108.598 486.5,107.5 Z"/></g>
<g><path style="opacity:1" fill="#8f9195" d="M 734.5,109.5 C 732.781,112.219 730.447,114.219 727.5,115.5C 727.351,114.448 727.517,113.448 728,112.5C 728.654,113.696 729.154,113.696 729.5,112.5C 728.371,110.471 728.871,110.137 731,111.5C 731.71,110.027 732.876,109.36 734.5,109.5 Z"/></g>
<g><path style="opacity:1" fill="#7e8086" d="M 564.5,109.5 C 565.239,109.369 565.906,109.536 566.5,110C 568.868,112.312 570.868,114.812 572.5,117.5C 571.206,116.71 570.039,115.71 569,114.5C 568.259,115.641 567.425,115.641 566.5,114.5C 565.678,112.861 565.011,111.195 564.5,109.5 Z"/></g>
<g><path style="opacity:0.478" fill="#a9adb0" d="M 678.5,61.5 C 679.167,81.8333 679.833,102.167 680.5,122.5C 680.44,123.043 680.107,123.376 679.5,123.5C 678.5,102.844 678.167,82.1774 678.5,61.5 Z"/></g>
<g><path style="opacity:0.573" fill="#b3b4b9" d="M 504.5,113.5 C 503.833,114.833 502.833,115.833 501.5,116.5C 501.5,114.5 502.5,113.5 504.5,113.5 Z"/></g>
<g><path style="opacity:1" fill="#6e7175" d="M 552.5,131.5 C 549.162,125.253 543.829,122.587 536.5,123.5C 528.606,122.778 523.273,126.112 520.5,133.5C 520.167,133.5 519.833,133.5 519.5,133.5C 519.617,129.239 521.45,125.906 525,123.5C 525.333,123.833 525.667,124.167 526,124.5C 528.479,121.559 531.646,119.893 535.5,119.5C 537.873,119.975 540.039,119.975 542,119.5C 545.202,122.522 548.702,125.189 552.5,127.5C 553.363,128.726 553.363,130.06 552.5,131.5 Z"/></g>
<g><path style="opacity:0.949" fill="#93969a" d="M 646.5,117.5 C 647.169,123.487 645.169,124.82 640.5,121.5C 642.199,121.66 643.866,121.494 645.5,121C 644.2,119.421 644.534,118.255 646.5,117.5 Z"/></g>
<g><path style="opacity:0.999" fill="#717379" d="M 722.5,119.5 C 717.821,124.178 712.821,128.511 707.5,132.5C 707.461,131.417 707.127,130.417 706.5,129.5C 707.729,128.719 709.062,128.219 710.5,128C 709.577,125.959 709.244,123.792 709.5,121.5C 710.552,121.351 711.552,121.517 712.5,122C 711.289,122.893 711.289,123.726 712.5,124.5C 715.974,123.271 718.307,120.938 719.5,117.5C 720.265,118.612 721.265,119.279 722.5,119.5 Z"/></g>
<g><path style="opacity:0.451" fill="#b6b8bc" d="M 498.5,121.5 C 498.573,123.027 497.906,124.027 496.5,124.5C 496.427,122.973 497.094,121.973 498.5,121.5 Z"/></g>
<g><path style="opacity:0.994" fill="#7d8082" d="M 572.5,117.5 C 576.157,121.768 578.49,126.768 579.5,132.5C 577.744,131.448 577.077,129.781 577.5,127.5C 576.5,127.5 575.5,127.5 574.5,127.5C 574.421,126.07 574.754,124.736 575.5,123.5C 573.962,121.757 572.962,119.757 572.5,117.5 Z"/></g>
<g><path style="opacity:0.941" fill="#848687" d="M 363.5,124.5 C 365.777,124.863 366.444,125.863 365.5,127.5C 367.104,129.179 367.771,131.179 367.5,133.5C 365.408,130.912 364.075,127.912 363.5,124.5 Z"/></g>
<g><path style="opacity:0.353" fill="#bfc1c5" d="M 552.5,131.5 C 553.434,132.568 553.768,133.901 553.5,135.5C 541.784,136.144 530.451,135.478 519.5,133.5C 519.833,133.5 520.167,133.5 520.5,133.5C 530.987,134.494 541.654,134.828 552.5,134.5C 552.5,133.5 552.5,132.5 552.5,131.5 Z"/></g>
<g><path style="opacity:1" fill="#7e8084" d="M 476.5,133.5 C 475.871,136.397 474.871,139.064 473.5,141.5C 472.72,138.291 472.886,135.291 474,132.5C 474.342,134.619 475.175,134.953 476.5,133.5 Z"/></g>
<g><path style="opacity:1" fill="#717579" d="M 404.5,127.5 C 403.873,130.089 403.873,132.589 404.5,135C 404.056,136.762 403.556,136.595 403,134.5C 401.85,136.754 401.516,139.087 402,141.5C 402.654,140.304 403.154,140.304 403.5,141.5C 401.935,142.238 400.268,143.238 398.5,144.5C 400.129,138.608 402.129,132.941 404.5,127.5 Z"/></g>
<g><path style="opacity:0.267" fill="#e0e2e5" d="M 398.5,145.5 C 397.968,148.46 397.301,148.793 396.5,146.5C 397.167,146.167 397.833,145.833 398.5,145.5 Z"/></g>
<g><path style="opacity:0.345" fill="#cfd3d6" d="M 445.5,146.5 C 446.167,146.833 446.833,147.167 447.5,147.5C 446.699,149.793 446.032,149.46 445.5,146.5 Z"/></g>
<g><path style="opacity:1" fill="#7fced1" d="M 238.5,140.5 C 239.162,142.304 239.495,144.304 239.5,146.5C 239.602,150.117 238.935,153.45 237.5,156.5C 237.98,151.178 238.313,145.845 238.5,140.5 Z"/></g>
<g><path style="opacity:0.529" fill="#b7b7bb" d="M 710.5,148.5 C 711.906,148.973 712.573,149.973 712.5,151.5C 711.094,151.027 710.427,150.027 710.5,148.5 Z"/></g>
<g><path style="opacity:0.237" fill="#c9cacd" d="M 580.5,137.5 C 581.487,142.305 581.821,147.305 581.5,152.5C 560.473,151.845 539.806,152.512 519.5,154.5C 518.596,153.791 518.263,152.791 518.5,151.5C 539.167,151.5 559.833,151.5 580.5,151.5C 580.5,146.833 580.5,142.167 580.5,137.5 Z"/></g>
<g><path style="opacity:0.863" fill="#b4b4b6" d="M 685.5,158.5 C 687.048,158.821 687.715,159.821 687.5,161.5C 686.599,160.71 685.932,159.71 685.5,158.5 Z"/></g>
<g><path style="opacity:0.78" fill="#abacb0" d="M 521.5,159.5 C 522.906,159.973 523.573,160.973 523.5,162.5C 522.094,162.027 521.427,161.027 521.5,159.5 Z"/></g>
<g><path style="opacity:0.996" fill="#94969b" d="M 416.5,161.5 C 416.598,163.553 415.931,165.22 414.5,166.5C 414.077,164.219 414.744,162.552 416.5,161.5 Z"/></g>
<g><path style="opacity:0.997" fill="#7e8084" d="M 384.5,178.5 C 383.264,176.351 382.264,174.018 381.5,171.5C 382.496,171.586 383.329,171.252 384,170.5C 384.497,173.146 384.664,175.813 384.5,178.5 Z"/></g>
<g><path style="opacity:0.992" fill="#9d9ea3" d="M 499.5,172.5 C 501.935,173.27 503.269,174.937 503.5,177.5C 501.793,176.127 500.46,174.461 499.5,172.5 Z"/></g>
<g><path style="opacity:1" fill="#676b6f" d="M 570.5,180.5 C 572.968,173.052 570.634,169.385 563.5,169.5C 563.64,167.876 562.973,166.71 561.5,166C 558.144,166.613 554.81,166.446 551.5,165.5C 554.472,163.359 556.972,160.692 559,157.5C 564.628,163.293 570.461,168.96 576.5,174.5C 574.812,176.854 572.812,178.854 570.5,180.5 Z"/></g>
<g><path style="opacity:1" fill="#1bb4bc" d="M 28.5,33.5 C 30.8986,40.9312 30.5653,48.0979 27.5,55C 28.2657,56.7972 28.9324,58.6305 29.5,60.5C 28.1927,87.2713 27.5261,114.105 27.5,141C 27.6667,166.833 27.8333,192.667 28,218.5C 29.0437,219.623 29.7104,220.956 30,222.5C 30.3333,221.833 30.6667,221.167 31,220.5C 31.7991,165.827 31.6324,111.16 30.5,56.5C 30.3782,53.3089 30.8782,50.3089 32,47.5C 33.4958,106.024 33.9958,164.691 33.5,223.5C 33.1667,224.833 32.8333,226.167 32.5,227.5C 30.7163,228.72 29.0496,228.72 27.5,227.5C 26.9447,225.271 25.6114,223.605 23.5,222.5C 22.5,163.504 22.1667,104.504 22.5,45.5C 22.9333,40.6332 24.9333,36.6332 28.5,33.5 Z"/></g>
<g><path style="opacity:0.351" fill="#bec0c4" d="M 348.5,165.5 C 348.56,164.957 348.893,164.624 349.5,164.5C 350.819,171.99 350.819,179.323 349.5,186.5C 349.825,179.313 349.491,172.313 348.5,165.5 Z"/></g>
<g><path style="opacity:1" fill="#8a8c8f" d="M 309.5,181.5 C 312.063,181.731 313.73,183.065 314.5,185.5C 312.251,184.92 310.585,183.587 309.5,181.5 Z"/></g>
<g><path style="opacity:0.976" fill="#909297" d="M 570.5,180.5 C 568.704,182.9 566.37,184.567 563.5,185.5C 565.06,182.792 567.393,181.126 570.5,180.5 Z"/></g>
<g><path style="opacity:1" fill="#2fb7bd" d="M 231.5,126.5 C 235.409,130.317 237.742,134.984 238.5,140.5C 238.313,145.845 237.98,151.178 237.5,156.5C 235.619,163.225 231.619,168.392 225.5,172C 183.047,197.216 140.713,222.383 98.5,247.5C 92.4762,248.005 87.4762,250.505 83.5,255C 82.2068,255.49 80.8734,255.657 79.5,255.5C 79.5,256.5 79.5,257.5 79.5,258.5C 76.4824,258.296 73.4824,257.963 70.5,257.5C 66.917,252.929 67.2503,248.763 71.5,245C 112.755,219.879 154.089,195.046 195.5,170.5C 197.467,170.261 199.301,170.594 201,171.5C 201.667,169.5 203,168.167 205,167.5C 207.192,168.399 209.358,169.399 211.5,170.5C 217.188,168.325 222.855,166.991 228.5,166.5C 230.415,164.507 232.082,162.34 233.5,160C 232.934,154.548 232.934,149.048 233.5,143.5C 232.5,143.5 231.5,143.5 230.5,143.5C 232.111,138.683 231.778,134.016 229.5,129.5C 229.942,128.261 230.609,127.261 231.5,126.5 Z"/></g>
<g><path style="opacity:0.392" fill="#bdbfc3" d="M 511.5,183.5 C 513.027,183.427 514.027,184.094 514.5,185.5C 512.973,185.573 511.973,184.906 511.5,183.5 Z"/></g>
<g><path style="opacity:1" fill="#7f8286" d="M 327.5,190.5 C 323.714,190.68 320.381,189.68 317.5,187.5C 318.151,186.909 318.818,186.243 319.5,185.5C 321.601,188.21 324.267,189.877 327.5,190.5 Z"/></g>
<g><path style="opacity:0.478" fill="#aeb1b3" d="M 314.5,185.5 C 316.027,185.427 317.027,186.094 317.5,187.5C 315.973,187.573 314.973,186.906 314.5,185.5 Z"/></g>
<g><path style="opacity:0.455" fill="#babbbe" d="M 771.5,196.5 C 771.573,198.027 770.906,199.027 769.5,199.5C 769.427,197.973 770.094,196.973 771.5,196.5 Z"/></g>
<g><path style="opacity:1" fill="#85898e" d="M 746.5,208.5 C 746.765,212.653 745.431,215.987 742.5,218.5C 743.658,215.011 744.991,211.678 746.5,208.5 Z"/></g>
<g><path style="opacity:0.993" fill="#7b7f84" d="M 792.5,205.5 C 789.058,214.265 783.725,221.599 776.5,227.5C 776.461,226.417 776.127,225.417 775.5,224.5C 778.304,222.862 780.971,221.029 783.5,219C 782.833,218.333 782.167,217.667 781.5,217C 782.572,215.716 783.905,215.383 785.5,216C 784.289,215.107 784.289,214.274 785.5,213.5C 787.529,214.629 787.863,214.129 786.5,212C 788.4,209.665 790.4,207.498 792.5,205.5 Z"/></g>
<g><path style="opacity:1" fill="#5fc2c2" d="M 98.5,247.5 C 91.6803,252.642 84.347,256.976 76.5,260.5C 74.0808,260.086 72.0808,259.086 70.5,257.5C 73.4824,257.963 76.4824,258.296 79.5,258.5C 79.5,257.5 79.5,256.5 79.5,255.5C 80.8734,255.657 82.2068,255.49 83.5,255C 87.4762,250.505 92.4762,248.005 98.5,247.5 Z"/></g>
<g><path style="opacity:1" fill="#41b8bd" d="M 42.5,254.5 C 50.0328,254.529 53.5328,258.196 53,265.5C 50.4586,270.069 46.6253,271.569 41.5,270C 34.9084,264.541 35.2417,259.375 42.5,254.5 Z"/></g>
</svg>
