<?xml version="1.0" encoding="UTF-8"?>
<!DOCTYPE svg PUBLIC "-//W3C//DTD SVG 1.1//EN" "http://www.w3.org/Graphics/SVG/1.1/DTD/svg11.dtd">
<svg xmlns="http://www.w3.org/2000/svg" version="1.1" width="1827px" height="612px" style="shape-rendering:geometricPrecision; text-rendering:geometricPrecision; image-rendering:optimizeQuality; fill-rule:evenodd; clip-rule:evenodd" xmlns:xlink="http://www.w3.org/1999/xlink">
<g><path style="opacity:1" fill="#fefefe" d="M -0.5,-0.5 C 608.5,-0.5 1217.5,-0.5 1826.5,-0.5C 1826.5,203.5 1826.5,407.5 1826.5,611.5C 1217.5,611.5 608.5,611.5 -0.5,611.5C -0.5,407.5 -0.5,203.5 -0.5,-0.5 Z"/></g>
<g><path style="opacity:1" fill="#1bb5bc" d="M 57.5,76.5 C 59.5273,76.3379 61.5273,76.5045 63.5,77C 62.1667,77.3333 60.8333,77.6667 59.5,78C 80.8333,78.6667 80.8333,79.3333 59.5,80C 63.8518,80.4189 64.1851,81.0855 60.5,82C 66.8333,82.3333 73.1667,82.6667 79.5,83C 73.5,83.3333 67.5,83.6667 61.5,84C 68.5032,84.4966 68.8365,85.1632 62.5,86C 85.1667,86.6667 85.1667,87.3333 62.5,88C 62.9574,88.414 63.2907,88.914 63.5,89.5C 68.8025,90.3295 74.1358,90.8295 79.5,91C 74.5,91.3333 69.5,91.6667 64.5,92C 73.8333,92.6667 73.8333,93.3333 64.5,94C 69.5,94.3333 74.5,94.6667 79.5,95C 74.8333,95.3333 70.1667,95.6667 65.5,96C 67.3008,96.3173 67.6341,96.984 66.5,98C 71.8229,98.4994 77.1563,98.666 82.5,98.5C 81.2407,102.048 80.4074,105.715 80,109.5C 79.6667,229.833 79.3333,350.167 79,470.5C 76.6949,478.748 71.1949,482.748 62.5,482.5C 54.2206,482.066 49.0539,477.733 47,469.5C 46.3333,347.833 46.3333,226.167 47,104.5C 48.2627,94.1978 51.7627,84.8645 57.5,76.5 Z"/></g>
<g><path style="opacity:1" fill="#565a61" d="M 1490.5,217.5 C 1517.67,217.169 1544.67,217.502 1571.5,218.5C 1542.57,242.982 1513.57,267.482 1484.5,292C 1514.17,328.333 1543.83,364.667 1573.5,401C 1550.17,401.667 1526.83,401.667 1503.5,401C 1485.64,378.771 1468.14,356.271 1451,333.5C 1448.87,330.868 1446.54,328.534 1444,326.5C 1442.04,327.625 1440.2,328.959 1438.5,330.5C 1437.5,354.157 1437.17,377.824 1437.5,401.5C 1419.17,401.5 1400.83,401.5 1382.5,401.5C 1382.5,311.167 1382.5,220.833 1382.5,130.5C 1400.83,130.5 1419.17,130.5 1437.5,130.5C 1437.33,174.835 1437.5,219.168 1438,263.5C 1455.37,247.958 1472.87,232.625 1490.5,217.5 Z"/></g>
<g><path style="opacity:1" fill="#20b6bd" d="M 82.5,98.5 C 77.1563,98.666 71.8229,98.4994 66.5,98C 67.6341,96.984 67.3008,96.3173 65.5,96C 70.1667,95.6667 74.8333,95.3333 79.5,95C 74.5,94.6667 69.5,94.3333 64.5,94C 73.8333,93.3333 73.8333,92.6667 64.5,92C 69.5,91.6667 74.5,91.3333 79.5,91C 74.1358,90.8295 68.8025,90.3295 63.5,89.5C 63.2907,88.914 62.9574,88.414 62.5,88C 85.1667,87.3333 85.1667,86.6667 62.5,86C 68.8365,85.1632 68.5032,84.4966 61.5,84C 67.5,83.6667 73.5,83.3333 79.5,83C 73.1667,82.6667 66.8333,82.3333 60.5,82C 64.1851,81.0855 63.8518,80.4189 59.5,80C 80.8333,79.3333 80.8333,78.6667 59.5,78C 60.8333,77.6667 62.1667,77.3333 63.5,77C 61.5273,76.5045 59.5273,76.3379 57.5,76.5C 77.7904,49.0193 104.124,41.1859 136.5,53C 250.999,121.415 365.332,190.082 479.5,259C 509.135,283.179 514.635,312.012 496,345.5C 491.5,351.333 486.333,356.5 480.5,361C 376.667,423.415 273,486.082 169.5,549C 155.708,553.109 147.708,548.109 145.5,534C 145.565,531.409 146.065,528.909 147,526.5C 149.167,524.333 151.333,522.167 153.5,520C 256.667,457.584 359.667,394.918 462.5,332C 474.933,320.759 476.766,307.926 468,293.5C 465.926,291.548 463.759,289.715 461.5,288C 350.167,220.333 238.833,152.667 127.5,85C 108.551,76.7075 93.5513,81.2075 82.5,98.5 Z"/></g>
<g><path style="opacity:1" fill="#50555c" d="M 697.5,216.5 C 711.657,217.496 725.99,217.829 740.5,217.5C 740.5,232.5 740.5,247.5 740.5,262.5C 726.167,262.5 711.833,262.5 697.5,262.5C 697.333,286.836 697.5,311.169 698,335.5C 698.543,353.719 707.709,361.219 725.5,358C 731.196,356.07 736.363,353.236 741,349.5C 741.833,364.844 741.666,380.178 740.5,395.5C 718.631,406.53 696.298,407.363 673.5,398C 659.002,389.49 649.836,376.99 646,360.5C 644.674,353.546 643.674,346.546 643,339.5C 642.5,313.835 642.333,288.169 642.5,262.5C 635.833,262.5 629.167,262.5 622.5,262.5C 622.5,247.5 622.5,232.5 622.5,217.5C 629.354,217.824 636.021,217.491 642.5,216.5C 642.5,199.167 642.5,181.833 642.5,164.5C 660.833,164.5 679.167,164.5 697.5,164.5C 697.5,181.833 697.5,199.167 697.5,216.5 Z"/></g>
<g><path style="opacity:1" fill="#53585f" d="M 1230.5,304.5 C 1230.5,310.167 1230.5,315.833 1230.5,321.5C 1186.66,321.168 1143,321.501 1099.5,322.5C 1101.47,338.32 1109.81,349.487 1124.5,356C 1142.69,361.071 1159.35,358.071 1174.5,347C 1177.93,343.958 1180.77,340.458 1183,336.5C 1195.3,347.726 1207.47,359.06 1219.5,370.5C 1206.38,387.071 1189.38,397.571 1168.5,402C 1143.55,406.937 1119.22,404.937 1095.5,396C 1067.18,382.554 1050.01,360.388 1044,329.5C 1037.17,292.334 1047.33,260.834 1074.5,235C 1099.92,215.898 1128.26,209.898 1159.5,217C 1204.61,228.708 1228.28,257.875 1230.5,304.5 Z"/></g>
<g><path style="opacity:1" fill="#54585f" d="M 1253.5,217.5 C 1271.83,217.5 1290.17,217.5 1308.5,217.5C 1308.33,222.844 1308.5,228.177 1309,233.5C 1309.72,232.956 1310.22,232.289 1310.5,231.5C 1318.01,222.408 1327.67,216.908 1339.5,215C 1349.31,213.927 1358.98,214.594 1368.5,217C 1370.87,217.848 1372.87,219.181 1374.5,221C 1371.36,234.378 1368.86,247.878 1367,261.5C 1354.2,255.826 1341.03,254.993 1327.5,259C 1316.52,264.763 1310.35,273.93 1309,286.5C 1308.5,324.832 1308.33,363.165 1308.5,401.5C 1290.17,401.5 1271.83,401.5 1253.5,401.5C 1253.5,340.167 1253.5,278.833 1253.5,217.5 Z"/></g>
<g><path style="opacity:1" fill="#a8abae" d="M 977.5,217.5 C 996.326,216.503 1015.33,216.17 1034.5,216.5C 1034.74,217.791 1034.4,218.791 1033.5,219.5C 1015.2,217.513 996.53,216.846 977.5,217.5 Z"/></g>
<g><path style="opacity:1" fill="#b0b3b5" d="M 1253.5,217.5 C 1271.99,216.503 1290.66,216.17 1309.5,216.5C 1309.18,221.695 1309.51,226.695 1310.5,231.5C 1310.22,232.289 1309.72,232.956 1309,233.5C 1308.5,228.177 1308.33,222.844 1308.5,217.5C 1290.17,217.5 1271.83,217.5 1253.5,217.5 Z"/></g>
<g><path style="opacity:1" fill="#a9abaf" d="M 1490.5,217.5 C 1518,216.336 1545.66,216.17 1573.5,217C 1572.96,217.717 1572.29,218.217 1571.5,218.5C 1544.67,217.502 1517.67,217.169 1490.5,217.5 Z"/></g>
<g><path style="opacity:1" fill="#aaadb0" d="M 1637.5,217.5 C 1618.33,217.17 1599.33,217.503 1580.5,218.5C 1579.96,218.44 1579.62,218.107 1579.5,217.5C 1599,216.172 1618.33,216.172 1637.5,217.5 Z"/></g>
<g><path style="opacity:1" fill="#abadb0" d="M 1713.5,217.5 C 1732.67,216.172 1752,216.172 1771.5,217.5C 1771.38,218.107 1771.04,218.44 1770.5,218.5C 1751.67,217.503 1732.67,217.17 1713.5,217.5 Z"/></g>
<g><path style="opacity:1" fill="#52565d" d="M 977.5,217.5 C 996.53,216.846 1015.2,217.513 1033.5,219.5C 1010.31,279.727 987.312,340.06 964.5,400.5C 952.185,401.499 939.851,401.832 927.5,401.5C 916.835,371.675 905.668,342.008 894,312.5C 882.276,341.949 871.11,371.616 860.5,401.5C 848.149,401.832 835.815,401.499 823.5,400.5C 800.167,339.833 776.833,279.167 753.5,218.5C 772.488,217.5 791.488,217.167 810.5,217.5C 820.296,251.055 830.796,284.389 842,317.5C 852.175,284.47 862.509,251.47 873,218.5C 886.77,217.178 900.604,217.178 914.5,218.5C 925.116,251.844 935.616,285.178 946,318.5C 956.602,284.862 967.102,251.195 977.5,217.5 Z"/></g>
<g><path style="opacity:1" fill="#575c62" d="M 1637.5,217.5 C 1649.62,247.735 1662.28,277.735 1675.5,307.5C 1688.71,277.74 1701.38,247.74 1713.5,217.5C 1732.67,217.17 1751.67,217.503 1770.5,218.5C 1743.1,283.85 1715.6,349.183 1688,414.5C 1679.64,433.499 1669.64,451.499 1658,468.5C 1640.95,489.301 1619.78,495.468 1594.5,487C 1585.98,482.241 1577.98,476.741 1570.5,470.5C 1576.1,455.538 1581.6,440.538 1587,425.5C 1596.54,435.385 1607.71,438.218 1620.5,434C 1628.99,426.19 1634.83,416.69 1638,405.5C 1641.67,395.799 1644.84,385.966 1647.5,376C 1625.02,323.547 1602.69,271.047 1580.5,218.5C 1599.33,217.503 1618.33,217.17 1637.5,217.5 Z"/></g>
<g><path style="opacity:1" fill="#85888d" d="M 642.5,216.5 C 636.021,217.491 629.354,217.824 622.5,217.5C 622.5,232.5 622.5,247.5 622.5,262.5C 621.504,247.342 621.17,232.009 621.5,216.5C 628.5,216.5 635.5,216.5 642.5,216.5 Z"/></g>
<g><path style="opacity:1" fill="#8a8d91" d="M 697.5,216.5 C 712.167,216.5 726.833,216.5 741.5,216.5C 741.83,232.009 741.496,247.342 740.5,262.5C 740.5,247.5 740.5,232.5 740.5,217.5C 725.99,217.829 711.657,217.496 697.5,216.5 Z"/></g>
<g><path style="opacity:1" fill="#fdfdfd" d="M 1172.5,285.5 C 1160.84,286.167 1149,286.5 1137,286.5C 1124.81,286.499 1112.98,285.832 1101.5,284.5C 1104.47,273.363 1111.47,265.863 1122.5,262C 1135.66,259.007 1148.33,260.34 1160.5,266C 1167.19,270.895 1171.19,277.395 1172.5,285.5 Z"/></g>
<g><path style="opacity:1" fill="#7f8287" d="M 1101.5,284.5 C 1112.98,285.832 1124.81,286.499 1137,286.5C 1149,286.5 1160.84,286.167 1172.5,285.5C 1173.04,285.56 1173.38,285.893 1173.5,286.5C 1149.18,287.5 1124.84,287.833 1100.5,287.5C 1100.26,286.209 1100.6,285.209 1101.5,284.5 Z"/></g>
<g><path style="opacity:1" fill="#a8abae" d="M 1230.5,304.5 C 1231.49,310.31 1231.82,316.31 1231.5,322.5C 1187.5,322.5 1143.5,322.5 1099.5,322.5C 1143,321.501 1186.66,321.168 1230.5,321.5C 1230.5,315.833 1230.5,310.167 1230.5,304.5 Z"/></g>
<g><path style="opacity:1" fill="#22b5bd" d="M 91.5,540.5 C 106.335,539.833 113.168,546.833 112,561.5C 106.894,572.639 98.7269,575.805 87.5,571C 77.7517,562.679 77.085,553.679 85.5,544C 87.4319,542.541 89.4319,541.375 91.5,540.5 Z"/></g>
</svg>
